<?xml version="1.0" standalone="no"?>
<!DOCTYPE svg PUBLIC "-//W3C//DTD SVG 1.1//EN" "http://www.w3.org/Graphics/SVG/1.1/DTD/svg11.dtd"><svg t="1715697109321"
  class="icon" viewBox="0 0 1024 1024" version="1.1" xmlns="http://www.w3.org/2000/svg" p-id="4544"
  xmlns:xlink="http://www.w3.org/1999/xlink" width="32" height="32">
  <path
    d="M512.018 959.364c-22.049 0-43.698-5.376-62.659-15.51L163.854 788.66l-37.995-20.305C87.719 746.943 64 707.913 64 666.54V352.211c0-21.613 6.902-43.225 19.978-62.459 10.897-17.69 25.172-31.347 42.535-40.665l36.723-20.305 123.755-67.453 136.214-74.645c27.243-14.62 57.137-22.049 88.812-22.049 30.439 0 60.697 7.628 87.504 22.049l134.217 74.627 142.825 79.204c21.758 12.005 33.745 18.616 51.398 32.619 1.816 1.362 7.083 7.628 10.171 11.496C952.408 304.318 960 327.493 960 351.558v314.328c0 41.936-23.974 81.202-62.55 102.47l-35.343 18.997L575.294 943.2c-19.469 10.716-40.719 16.164-63.276 16.164z m-371.302-624.17c-2.179 5.903-1.598 11.787-1.308 14.602l0.109 296.439c0 31.039 16.854 43.788 38.867 57.246l268.542 149.345 3.959 2.597c3.233 2.27 5.812 4.068 16.636 7.991l3.124-359.679-1.707-0.89 0.726-1.017-324.153-167.633-1.853-0.472h-0.799l-2.143 1.471z m413.619 167.943c-0.981 42.299-0.835 107.028-0.69 173.228 0.182 69.251 0.363 140.083 0.363 186.614 12.35-2.924 14.384-4.359 16.927-6.121l4.214-2.761 273.664-149.255c24.119-14.457 36.324-27.37 36.324-57.955V350.904c0-2.488 0.145-4.577 0.291-6.32 0.4-5.612 0.69-9.335-6.066-11.787l-0.799-0.291-324.228 170.631z m-44.278-360.351c-24.845 0-40.901 7.519-57.864 16.6l-219.36 115.873c-2.906 0.944-9.916 5.267-11.442 9.39l0.254 0.454 0.726 3.941 288.811 147.983L794.4 291.66c2.724-6.284 1.744-6.974-7.592-13.64L611.8 182.289l-30.221-15.093c-29.714-16.418-53.142-24.41-71.522-24.41z"
    p-id="4545"></path>
</svg>