<?xml version="1.0" standalone="no"?>
<!DOCTYPE svg PUBLIC "-//W3C//DTD SVG 1.1//EN" "http://www.w3.org/Graphics/SVG/1.1/DTD/svg11.dtd"><svg t="1715697819556"
                                                                                                       class="icon" viewBox="0 0 1024 1024" version="1.1" xmlns="http://www.w3.org/2000/svg" p-id="7660"
                                                                                                       xmlns:xlink="http://www.w3.org/1999/xlink" width="32" height="32">
    <path
            d="M512 70.5C267.17 70.5 70.5 267.17 70.5 512S267.17 953.5 512 953.5 953.5 756.83 953.5 512 756.83 70.5 512 70.5z m-22.08 840.85v-0.12c-203.76-11.01-367.28-175.14-379.29-379.16h82.28c6.02 18.06 22.07 34.11 42.15 38.13 26.09 120.41 128.43 212.72 254.86 220.75v120.28c0.67 0.04 1.34 0.09 2.01 0.12h-2.01z m2.01-158.53c-106.36-8.02-190.65-86.29-214.73-186.63 14.04-6.02 24.08-20.07 30.1-34.11h106.36c8.02 40.14 38.13 70.24 78.26 78.26v142.48z m0-339.15c-40.14 8.02-70.24 38.13-78.26 78.26H307.3c-6.02-14.04-16.05-26.09-30.1-34.12 22.07-100.34 108.37-176.6 214.73-186.63v142.49z m0-182.62C365.5 239.07 263.15 331.39 237.07 451.8c-20.07 4.01-36.12 20.07-42.14 38.13h-84.29c12.04-202.69 176.6-367.24 381.3-377.28v118.4z m40.14-118.41c204.69 10.03 369.25 174.59 381.3 379.29H792.95c-4.01-50.17-20.07-94.32-46.16-134.46 4.02-8.03 6.02-16.05 6.02-26.09 0-34.12-26.09-60.2-60.2-60.2-10.04 0-18.06 2.01-26.09 6.02-38.13-26.09-84.29-42.15-134.46-46.16v-118.4z m-2.01 160.55h2.01c38.13 4.02 74.25 16.06 106.36 34.12-4.01 8.03-6.02 16.06-6.02 24.08 0 34.11 26.09 60.21 60.21 60.21 8.02 0 16.05-2.01 24.08-6.02 20.07 32.11 32.11 66.22 34.12 106.36H608.33c-8.03-40.14-38.13-70.24-78.27-78.26V273.19z m222.76 258.88c-10.03 116.39-102.35 210.72-220.75 220.75V610.33c40.14-8.02 70.24-38.13 78.26-78.26h142.49zM532.07 911.35v-120.4c138.47-10.04 250.85-120.41 260.88-258.88h120.41c-12.04 204.69-176.6 369.25-381.29 379.28z"
            p-id="7661"></path>
</svg>